<svg xmlns="http://www.w3.org/2000/svg" xmlns:xlink="http://www.w3.org/1999/xlink" viewBox="0 0 427.979 498.242" height="440" width="600" overflow="visible"><defs><circle cx="212" cy="337" r="100" id="3"/><clipPath id="2"><ellipse transform="matrix(0.9408 0.339 -0.3673 0.9301 0 0)" ry="169" rx="165" cx="211" cy="253" opacity="0.8" color="#000" stroke-width="1.1" fill="none" stroke="#00f"/></clipPath></defs><path d="m 353 420 h 1.4 h 4 h 1.4 h -6.8 z" transform="matrix(1.646 0 0 1.652 -119 -336)"/><g transform="scale(1.004 0.9961)"><path d="m 59.7 464 h 5.3 v 20.4 h -5.3 v -20.4 z"/><path d="m 84 471 q 0.9 -1.4 2.2 -2.1 1.3 -0.8 2.8 -0.8 2.6 0 4 1.6 1.4 1.7 1.4 4.8 v 9.3 h -4.9 v -8 q 0 -0.2 0 -0.4 0 -0.2 0 -0.5 0 -1.6 -0.5 -2.4 -0.5 -0.7 -1.5 -0.7 -1.4 0 -2.2 1.1 -0.8 1.2 -0.8 3.4 v 7.5 h -4.9 v -8 q 0 -2.5 -0.4 -3.3 -0.4 -0.7 -1.6 -0.7 -1.4 0 -2.2 1.2 -0.8 1.1 -0.8 3.3 v 7.5 h -4.9 v -15.3 h 4.9 v 2.2 q 0.9 -1.3 2.1 -1.9 1.2 -0.7 2.6 -0.7 1.6 0 2.8 0.8 1.2 0.7 1.8 2.1 z"/><path d="m 104 482 v 8 h -5 v -21 h 5 v 2.2 q 1 -1.3 2.2 -2 1.2 -0.6 2.8 -0.6 2.9 0 4.7 2.3 1.8 2.2 1.8 5.7 0 3.6 -1.8 5.8 -1.8 2.3 -4.7 2.3 -1.6 0 -2.8 -0.6 -1.2 -0.7 -2.2 -2 z m 3.2 -9.9 q -1.6 0 -2.4 1.1 -0.8 1.2 -0.8 3.3 0 2.2 0.8 3.4 0.8 1.1 2.4 1.1 1.6 0 2.4 -1.1 0.8 -1.2 0.8 -3.4 0 -2.1 -0.8 -3.3 -0.8 -1.1 -2.4 -1.1 z"/><path d="m 119 463 h 4.9 v 21.3 h -4.9 v -21.3 z"/><path d="m 136 472 q -1.7 0 -2.5 1.2 -0.9 1.1 -0.9 3.3 0 2.2 0.9 3.4 0.8 1.2 2.5 1.2 1.6 0 2.4 -1.2 0.9 -1.2 0.9 -3.4 0 -2.2 -0.9 -3.3 -0.8 -1.2 -2.4 -1.2 z m 0 -3.5 q 3.9 0 6.1 2.1 2.3 2.2 2.3 5.9 0 3.8 -2.3 6 -2.2 2.1 -6.1 2.1 -4 0 -6.3 -2.1 -2.2 -2.2 -2.2 -6 0 -3.7 2.2 -5.9 2.3 -2.1 6.3 -2.1 z"/><path d="m 160 469 v 3.8 q -1.6 -0.7 -3 -1 -1.5 -0.3 -2.8 -0.3 -1.4 0 -2.1 0.3 -0.7 0.4 -0.7 1.1 0 0.6 0.6 0.9 0.5 0.3 1.8 0.4 l 0.9 0.2 q 3.7 0.4 5 1.5 1.3 1.1 1.3 3.5 0 2.4 -1.8 3.7 -1.8 1.2 -5.4 1.2 -1.5 0 -3.1 -0.3 -1.6 -0.2 -3.3 -0.7 v -3.7 q 1.4 0.7 3 1.1 1.5 0.3 3.1 0.3 1.4 0 2.1 -0.4 0.8 -0.4 0.8 -1.1 0 -0.7 -0.5 -1 -0.5 -0.3 -2 -0.5 l -0.9 -0.1 q -3.2 -0.4 -4.6 -1.5 -1.3 -1.2 -1.3 -3.4 0 -2.4 1.7 -3.6 1.7 -1.2 5.1 -1.2 1.4 0 2.9 0.2 1.4 0.2 3.2 0.6 z"/><path d="m 165 469 h 4.9 v 15.3 h -4.9 v -15.3 z m 0 -6 h 4.9 v 4 h -4.9 v -4 z"/><path d="m 182 472 q -1.6 0 -2.5 1.2 -0.8 1.1 -0.8 3.3 0 2.2 0.8 3.4 0.9 1.2 2.5 1.2 1.6 0 2.5 -1.2 0.8 -1.2 0.8 -3.4 0 -2.2 -0.8 -3.3 -0.9 -1.2 -2.5 -1.2 z m 0 -3.5 q 4 0 6.2 2.1 2.2 2.2 2.2 5.9 0 3.8 -2.2 6 -2.2 2.1 -6.2 2.1 -3.9 0 -6.2 -2.1 -2.2 -2.2 -2.2 -6 0 -3.7 2.2 -5.9 2.3 -2.1 6.2 -2.1 z"/><path d="m 209 475 v 9.3 h -4.9 v -1.5 v -5.7 q 0 -1.9 -0.1 -2.7 -0.1 -0.7 -0.3 -1.1 -0.3 -0.5 -0.8 -0.7 -0.5 -0.3 -1.1 -0.3 -1.5 0 -2.4 1.2 -0.9 1.2 -0.9 3.3 v 7.5 h -4.9 v -15.3 h 4.9 v 2.2 q 1.1 -1.3 2.4 -2 1.2 -0.6 2.7 -0.6 2.7 0 4 1.6 1.4 1.7 1.4 4.8 z"/><path d="m 226 469 v 3.8 q -1.5 -0.7 -3 -1 -1.5 -0.3 -2.8 -0.3 -1.3 0 -2 0.3 -0.7 0.4 -0.7 1.1 0 0.6 0.5 0.9 0.5 0.3 1.9 0.4 l 0.8 0.2 q 3.8 0.4 5.1 1.5 1.3 1.1 1.3 3.5 0 2.4 -1.8 3.7 -1.8 1.2 -5.4 1.2 -1.5 0 -3.2 -0.3 -1.6 -0.2 -3.3 -0.7 v -3.7 q 1.5 0.7 3 1.1 1.6 0.3 3.1 0.3 1.5 0 2.2 -0.4 0.7 -0.4 0.7 -1.1 0 -0.7 -0.5 -1 -0.5 -0.3 -2 -0.5 l -0.8 -0.1 q -3.3 -0.4 -4.6 -1.5 -1.3 -1.2 -1.3 -3.4 0 -2.4 1.6 -3.6 1.7 -1.2 5.2 -1.2 1.3 0 2.8 0.2 1.5 0.2 3.2 0.6 z"/><path d="m 245 471 q 0.9 -1.4 2.2 -2.1 1.3 -0.8 2.8 -0.8 2.6 0 4 1.6 1.4 1.7 1.4 4.8 v 9.3 h -4.9 v -8 q 0 -0.2 0 -0.4 0 -0.2 0 -0.5 0 -1.6 -0.5 -2.4 -0.5 -0.7 -1.5 -0.7 -1.4 0 -2.2 1.1 -0.7 1.2 -0.8 3.4 v 7.5 h -4.9 v -8 q 0 -2.5 -0.4 -3.3 -0.5 -0.7 -1.6 -0.7 -1.4 0 -2.2 1.2 -0.7 1.1 -0.7 3.3 v 7.5 h -5 v -15.3 h 5 v 2.2 q 0.9 -1.3 2 -1.9 1.2 -0.7 2.6 -0.7 1.6 0 2.8 0.8 1.2 0.7 1.9 2.1 z"/><path d="m 275 476 v 1.4 h -11.5 q 0.2 1.7 1.3 2.6 1 0.8 3 0.8 1.5 0 3.1 -0.4 1.6 -0.5 3.4 -1.4 v 3.8 q -1.8 0.6 -3.5 0.9 -1.8 0.4 -3.5 0.4 -4.2 0 -6.5 -2.1 -2.3 -2.1 -2.3 -6 0 -3.7 2.3 -5.9 2.3 -2.1 6.2 -2.1 3.6 0 5.8 2.2 2.2 2.1 2.2 5.8 z m -5.1 -1.6 q 0 -1.4 -0.8 -2.3 -0.8 -0.8 -2.1 -0.8 -1.4 0 -2.3 0.8 -0.9 0.8 -1.1 2.3 h 6.3 z"/><path d="m 284 464 v 4.4 h 5.1 v 3.5 h -5.1 v 6.5 q 0 1 0.4 1.4 0.5 0.4 1.7 0.4 h 2.5 v 3.5 h -4.2 q -2.9 0 -4.1 -1.2 -1.2 -1.2 -1.2 -4.1 v -6.5 h -2.4 v -3.5 h 2.4 v -4.4 h 4.9 z"/><path d="m 307 475 v 9.3 h -4.9 v -1.5 v -5.6 q 0 -2 -0.1 -2.8 -0.1 -0.7 -0.3 -1.1 -0.3 -0.5 -0.8 -0.7 -0.5 -0.3 -1.1 -0.3 -1.6 0 -2.4 1.2 -0.9 1.2 -0.9 3.3 v 7.5 h -4.9 v -21.3 h 4.9 v 8.2 q 1.1 -1.3 2.3 -2 1.3 -0.6 2.8 -0.6 2.6 0 4 1.6 1.4 1.7 1.4 4.8 z"/><path d="m 319 472 q -1.6 0 -2.4 1.2 -0.9 1.1 -0.9 3.3 0 2.2 0.9 3.4 0.8 1.2 2.4 1.2 1.6 0 2.5 -1.2 0.8 -1.2 0.8 -3.4 0 -2.2 -0.8 -3.3 -0.9 -1.2 -2.5 -1.2 z m 0 -3.5 q 4 0 6.2 2.1 2.2 2.2 2.2 5.9 0 3.8 -2.2 6 -2.2 2.1 -6.2 2.1 -3.9 0 -6.2 -2.1 -2.2 -2.2 -2.2 -6 0 -3.7 2.2 -5.9 2.3 -2.1 6.2 -2.1 z"/><path d="m 342 471 v -8.2 h 5 v 21.3 h -5 v -2.2 q -1 1.3 -2.2 2 -1.2 0.6 -2.8 0.6 -2.8 0 -4.7 -2.3 -1.8 -2.2 -1.8 -5.8 0 -3.5 1.8 -5.7 1.9 -2.3 4.7 -2.3 1.6 0 2.8 0.6 1.2 0.7 2.2 2 z m -3.2 9.9 q 1.6 0 2.4 -1.1 0.8 -1.2 0.8 -3.4 0 -2.1 -0.8 -3.3 -0.8 -1.1 -2.4 -1.1 -1.5 0 -2.4 1.1 -0.8 1.2 -0.8 3.3 0 2.2 0.8 3.4 0.9 1.1 2.4 1.1 z"/><path d="m 367 476 v 1.4 h -11.5 q 0.2 1.7 1.3 2.6 1.1 0.8 3 0.8 1.5 0 3.1 -0.4 1.7 -0.5 3.4 -1.4 v 3.8 q -1.8 0.6 -3.5 0.9 -1.7 0.4 -3.5 0.4 -4.1 0 -6.5 -2.1 -2.3 -2.1 -2.3 -6 0 -3.7 2.3 -5.9 2.3 -2.1 6.2 -2.1 3.7 0 5.8 2.2 2.2 2.1 2.2 5.8 z m -5 -1.6 q 0 -1.4 -0.9 -2.3 -0.8 -0.8 -2.1 -0.8 -1.4 0 -2.3 0.8 -0.9 0.8 -1.1 2.3 h 6.4 z"/></g><path d="m 453 84 c -0.6 0.2 -1.1 0.2 -1.5 0.2 -1 0 -1.8 -0.3 -2.3 -0.8 -0.6 -0.5 -0.9 -1.3 -0.9 -2.4 v -6.3 h -1.3 v -1.5 h 1.3 v -1.9 l 2 -0.2 v 2.1 h 2.8 v 1.5 h -2.8 v 5.9 c 0 0.8 0.1 1.3 0.4 1.6 0.3 0.3 0.8 0.5 1.4 0.5 0.2 0 0.6 0 0.9 -0.1 v 1.3 z m 23 0.1 v -9.2 h -1.5 v -1.5 h 1.5 v -1.3 c 0 -0.9 0.1 -1.6 0.3 -2.1 0.3 -0.5 0.6 -0.9 1.2 -1.3 0.5 -0.3 1.2 -0.5 2 -0.5 0.7 0 1.4 0.1 2.2 0.3 v 1.5 c -0.8 -0.3 -1.5 -0.4 -2.1 -0.4 -0.3 0 -0.6 0 -0.8 0.1 -0.3 0.1 -0.5 0.3 -0.6 0.5 -0.2 0.2 -0.2 0.7 -0.2 1.5 v 1.5 h 2.6 v 1.5 h -2.6 v 9.2 h -2 z m -7.5 0 v -9.2 h -1.5 v -1.5 h 1.5 v -1.3 c 0 -0.9 0.2 -1.6 0.4 -2.1 0.2 -0.5 0.6 -0.9 1.1 -1.3 0.5 -0.3 1.2 -0.5 2 -0.5 0.7 0 1.5 0.1 2.3 0.3 v 1.5 c -0.9 -0.3 -1.6 -0.4 -2.1 -0.4 -0.3 0 -0.6 0 -0.9 0.1 -0.2 0.1 -0.4 0.3 -0.6 0.5 -0.1 0.2 -0.2 0.7 -0.2 1.5 v 1.5 h 2.7 v 1.5 h -2.7 v 9.2 h -2 z m -8.5 -1.2 c 0.9 0 1.7 -0.4 2.2 -1.1 0.6 -0.7 0.8 -1.7 0.8 -3 0 -1.3 -0.2 -2.3 -0.8 -3.1 -0.5 -0.7 -1.3 -1.1 -2.2 -1.1 -1 0 -1.7 0.3 -2.3 1.1 -0.5 0.7 -0.8 1.7 -0.8 3.1 0 1.3 0.3 2.3 0.8 3 0.6 0.7 1.3 1.1 2.3 1.1 z m 0 1.5 c -1.1 0 -1.9 -0.2 -2.7 -0.6 -0.8 -0.4 -1.4 -1.1 -1.8 -2 -0.4 -0.9 -0.7 -1.9 -0.7 -3 0 -1 0.2 -2 0.6 -2.9 0.4 -0.9 1 -1.6 1.8 -2 0.8 -0.5 1.7 -0.7 2.8 -0.7 1 0 1.9 0.2 2.6 0.6 0.8 0.4 1.4 1.1 1.8 2 0.5 0.9 0.7 1.9 0.7 3 0 1 -0.2 2 -0.6 2.9 -0.4 0.9 -1 1.5 -1.8 2 -0.7 0.5 -1.7 0.7 -2.7 0.7 z m -22 -0.6 v -1.8 c 1.3 0.6 2.4 0.9 3.4 0.9 0.5 0 1 -0.2 1.4 -0.5 0.3 -0.3 0.5 -0.7 0.5 -1.1 0 -0.3 -0.1 -0.6 -0.3 -0.8 -0.2 -0.3 -0.6 -0.5 -1.2 -0.8 l -1.2 -0.5 c -0.9 -0.4 -1.5 -0.8 -1.9 -1.3 -0.4 -0.5 -0.6 -1 -0.6 -1.7 0 -0.9 0.3 -1.6 0.9 -2.1 0.7 -0.6 1.6 -0.9 2.8 -0.9 0.6 0 1.4 0.1 2.2 0.3 h 0.5 v 1.6 c -1.1 -0.3 -2 -0.5 -2.7 -0.5 -0.6 0 -1.1 0.1 -1.4 0.4 -0.3 0.3 -0.4 0.6 -0.4 1 0 0.3 0.1 0.5 0.3 0.8 0.2 0.2 0.6 0.5 1.1 0.7 l 0.9 0.4 c 1.3 0.5 2.1 1.1 2.4 1.6 0.4 0.5 0.6 1.1 0.6 1.7 0 0.6 -0.2 1.1 -0.5 1.6 -0.3 0.5 -0.8 0.9 -1.4 1.2 -0.7 0.3 -1.4 0.4 -2.1 0.4 -0.9 0 -2 -0.2 -3.3 -0.6 z m -2.4 0.4 c -0.6 0.2 -1.1 0.3 -1.6 0.3 -0.9 0 -1.7 -0.3 -2.3 -0.8 -0.5 -0.6 -0.8 -1.3 -0.8 -2.4 v -6.3 h -1.4 v -1.5 h 1.4 v -1.9 l 1.9 -0.2 v 2.1 h 2.9 v 1.5 h -2.9 v 5.9 c 0 0.7 0.2 1.3 0.5 1.6 0.3 0.3 0.7 0.5 1.4 0.5 0.2 0 0.5 0 0.9 -0.1 v 1.3 z m -10.7 0 v -15.5 h 2 v 15.5 h -2 z m -5.9 -2.4 v -2.8 h -0.6 c -1.1 0 -1.9 0.2 -2.6 0.6 -0.7 0.4 -1.1 0.9 -1.1 1.6 0 0.5 0.2 0.9 0.6 1.2 0.3 0.3 0.7 0.5 1.1 0.5 0.5 0 0.9 -0.1 1.3 -0.3 0.4 -0.2 0.8 -0.4 1.3 -0.8 z m 0.3 1 c -0.6 0.5 -1.2 0.9 -1.7 1.2 -0.6 0.3 -1.2 0.4 -1.7 0.4 -0.8 0 -1.5 -0.3 -2.1 -0.8 -0.7 -0.5 -1 -1.2 -1 -2.2 0 -1 0.4 -1.9 1.4 -2.6 0.9 -0.7 2.3 -1 4.3 -1 h 0.5 v -1.3 c 0 -0.5 -0.1 -0.9 -0.2 -1.1 -0.2 -0.2 -0.4 -0.4 -0.7 -0.5 -0.3 -0.1 -0.6 -0.2 -1.1 -0.2 -1 0 -2.1 0.3 -3.3 0.9 v -1.6 c 1.3 -0.5 2.6 -0.8 3.7 -0.8 0.7 0 1.3 0.1 1.8 0.3 0.5 0.2 0.9 0.5 1.3 1 0.3 0.4 0.4 1.1 0.4 2.1 v 4.8 c 0 0.5 0.1 0.9 0.2 1.1 0.1 0.2 0.2 0.3 0.3 0.4 0.2 0.1 0.4 0.2 0.6 0.2 0.1 0 0.2 0 0.3 0 l 0.2 1.1 c -0.5 0.2 -0.9 0.3 -1.5 0.3 -0.3 0 -0.7 -0.1 -1 -0.3 -0.3 -0.2 -0.6 -0.7 -0.7 -1.3 z m -16.4 -1.2 c 0.7 0.6 1.2 1 1.6 1.1 0.4 0.2 0.8 0.2 1.3 0.2 0.9 0 1.6 -0.4 2.1 -1.2 0.5 -0.8 0.7 -1.8 0.7 -3.1 0 -1.2 -0.2 -2.1 -0.6 -2.7 -0.4 -0.7 -1.1 -1 -1.9 -1 -0.5 0 -1.1 0.2 -1.6 0.4 -0.5 0.3 -1.1 0.7 -1.6 1.3 v 4.9 z m -1.9 6.4 v -14.6 h 1.9 v 2 c 0.4 -0.7 0.9 -1.3 1.5 -1.7 0.6 -0.4 1.3 -0.6 2.1 -0.6 1.3 0 2.4 0.5 3.1 1.5 0.7 1 1.1 2.2 1.1 3.8 0 1 -0.2 2 -0.5 2.9 -0.4 0.9 -0.9 1.7 -1.6 2.2 -0.7 0.5 -1.5 0.8 -2.4 0.8 -0.4 0 -0.8 -0.1 -1.4 -0.2 -0.6 -0.1 -1.2 -0.5 -1.9 -1.3 v 5.1 h -1.9 z m -12 -4.2 v -2 c 1.2 0.5 2.1 0.9 2.6 1 0.6 0.1 1.1 0.2 1.5 0.2 0.9 0 1.5 -0.2 2 -0.7 0.5 -0.5 0.7 -1 0.7 -1.6 0 -0.5 -0.1 -0.9 -0.3 -1.3 -0.3 -0.4 -0.9 -0.9 -2 -1.5 l -1 -0.6 c -1.3 -0.8 -2.2 -1.5 -2.7 -2.1 -0.4 -0.6 -0.7 -1.3 -0.7 -2.1 0 -0.7 0.2 -1.3 0.6 -1.9 0.3 -0.6 0.8 -1.1 1.5 -1.4 0.6 -0.3 1.3 -0.5 2.3 -0.5 1.1 0 2.3 0.2 3.6 0.6 v 1.9 c -1.1 -0.4 -1.9 -0.7 -2.3 -0.8 -0.4 -0.1 -0.8 -0.1 -1.2 -0.1 -0.8 0 -1.5 0.2 -1.9 0.7 -0.4 0.4 -0.6 0.9 -0.6 1.3 0 0.3 0.1 0.6 0.3 1 0.2 0.3 0.5 0.6 0.8 0.8 0.3 0.2 0.7 0.5 1.3 0.8 l 1.1 0.6 c 1.3 0.8 2.2 1.5 2.7 2.1 0.4 0.6 0.7 1.4 0.7 2.2 0 1.1 -0.5 2.1 -1.3 3 -0.9 0.8 -2.2 1.3 -3.9 1.3 -0.5 0 -1 0 -1.5 -0.1 -0.5 -0.1 -1.2 -0.3 -2.3 -0.5 z m 104 -20.3 v -1.8 c 1.3 0.6 2.4 0.9 3.4 0.9 0.5 0 1 -0.1 1.4 -0.5 0.3 -0.3 0.5 -0.7 0.5 -1.1 0 -0.3 -0.1 -0.6 -0.3 -0.8 -0.1 -0.3 -0.6 -0.5 -1.2 -0.8 l -1.2 -0.5 c -0.9 -0.4 -1.5 -0.8 -1.9 -1.3 -0.4 -0.5 -0.6 -1 -0.6 -1.7 0 -0.9 0.3 -1.6 0.9 -2.1 0.7 -0.6 1.6 -0.9 2.8 -0.9 0.6 0 1.4 0.1 2.2 0.3 l 0.5 0.1 v 1.6 c -1.1 -0.3 -2 -0.5 -2.7 -0.5 -0.6 0 -1 0.1 -1.4 0.4 -0.3 0.3 -0.4 0.6 -0.4 1 0 0.3 0.1 0.5 0.3 0.8 0.2 0.2 0.6 0.5 1.1 0.7 l 0.9 0.4 c 1.3 0.5 2.1 1 2.5 1.6 0.3 0.5 0.5 1.1 0.5 1.7 0 0.6 -0.2 1.1 -0.5 1.6 -0.3 0.5 -0.8 0.9 -1.4 1.2 -0.7 0.3 -1.4 0.4 -2.1 0.4 -0.9 0 -2 -0.2 -3.3 -0.6 z m -5.5 0.4 v -2 c -0.5 0.7 -1 1.3 -1.7 1.7 -0.6 0.4 -1.3 0.6 -2 0.6 -0.9 0 -1.7 -0.3 -2.2 -0.9 -0.6 -0.6 -0.9 -1.4 -0.9 -2.4 v -7.7 h 2 v 7 c 0 0.7 0 1.2 0.1 1.5 0.2 0.2 0.4 0.4 0.6 0.5 0.2 0.1 0.5 0.2 0.8 0.2 0.5 0 1 -0.1 1.5 -0.5 0.6 -0.3 1.2 -0.9 1.8 -1.9 v -6.9 h 2 v 10.7 h -2 z m -12.6 -2.4 v -2.8 h -0.7 c -1 0 -1.8 0.2 -2.5 0.6 -0.7 0.4 -1.1 0.9 -1.1 1.6 0 0.5 0.2 0.9 0.5 1.2 0.4 0.3 0.8 0.5 1.2 0.5 0.4 0 0.8 -0.1 1.3 -0.3 0.4 -0.2 0.8 -0.4 1.3 -0.8 z m 0.2 1.1 c -0.5 0.5 -1.1 0.9 -1.7 1.2 -0.5 0.3 -1.1 0.4 -1.6 0.4 -0.8 0 -1.5 -0.3 -2.2 -0.8 -0.6 -0.5 -0.9 -1.2 -0.9 -2.2 0 -1 0.4 -1.9 1.3 -2.6 0.9 -0.7 2.4 -1 4.4 -1 h 0.5 v -1.3 c 0 -0.5 -0.1 -0.9 -0.2 -1.1 -0.2 -0.2 -0.4 -0.4 -0.7 -0.5 -0.3 -0.1 -0.7 -0.2 -1.1 -0.2 -1 0 -2.1 0.3 -3.3 0.9 v -1.6 c 1.3 -0.5 2.5 -0.8 3.7 -0.8 0.6 0 1.2 0.1 1.8 0.3 0.5 0.2 0.9 0.5 1.2 1 0.4 0.4 0.5 1.1 0.5 2.1 v 4.8 c 0 0.5 0.1 0.9 0.1 1.1 0.1 0.2 0.2 0.3 0.4 0.4 0.2 0.1 0.3 0.1 0.5 0.1 0.1 0 0.3 0 0.4 0 l 0.2 1.1 c -0.5 0.2 -1 0.3 -1.5 0.3 -0.4 0 -0.7 -0.1 -1 -0.4 -0.4 -0.2 -0.6 -0.6 -0.8 -1.3 z m -17.8 1.4 v -15.5 h 2 v 15.5 h -2 z m -10 -6.5 h 4.8 c 0 -1.1 -0.2 -1.8 -0.7 -2.3 -0.4 -0.5 -0.9 -0.7 -1.6 -0.7 -0.7 0 -1.3 0.3 -1.7 0.7 -0.4 0.5 -0.7 1.2 -0.8 2.2 z m 6.7 6.1 c -1.3 0.4 -2.4 0.6 -3.4 0.6 -1.6 0 -3 -0.6 -3.9 -1.7 -1 -1.1 -1.5 -2.4 -1.5 -4 0 -1 0.3 -2 0.7 -2.9 0.4 -0.9 1 -1.6 1.6 -2 0.7 -0.4 1.5 -0.7 2.5 -0.7 1.2 0 2.2 0.5 2.9 1.3 0.8 0.9 1.1 2.2 1.1 4 v 0.6 h -6.8 c 0.1 0.9 0.4 1.7 0.7 2.2 0.3 0.5 0.7 0.9 1.2 1.2 0.5 0.3 1.1 0.4 1.9 0.4 0.4 0 0.8 0 1.2 -0.1 0.4 -0.1 1 -0.3 1.8 -0.5 v 1.5 z m -13.6 -3.4 v -4.4 c -0.5 -0.5 -0.9 -0.8 -1.4 -1 -0.4 -0.2 -0.9 -0.3 -1.4 -0.3 -0.9 0 -1.6 0.4 -2.1 1 -0.6 0.7 -0.8 1.7 -0.8 3 0 1 0.2 1.9 0.6 2.5 0.4 0.6 1 1 1.9 1 0.5 0 1.1 -0.1 1.6 -0.5 0.6 -0.3 1.1 -0.7 1.6 -1.3 z m -6.9 7.3 l 0.2 -1.7 c 1.1 0.5 2.3 0.8 3.4 0.8 1.2 0 2.1 -0.3 2.5 -0.9 0.5 -0.6 0.8 -1.5 0.8 -2.5 v -1.7 c -0.3 0.6 -0.8 1.1 -1.4 1.6 -0.6 0.5 -1.3 0.7 -2.2 0.7 -1.4 0 -2.5 -0.5 -3.2 -1.6 -0.7 -1 -1 -2.3 -1 -3.6 0 -1 0.2 -2 0.6 -2.9 0.4 -0.9 0.9 -1.5 1.6 -2 0.7 -0.4 1.6 -0.7 2.5 -0.7 0.4 0 0.7 0.1 1.1 0.1 0.3 0.1 0.7 0.2 1 0.4 0.3 0.2 0.6 0.5 1 0.9 v -1.2 h 1.9 v 7.8 c 0 2.3 -0.2 3.8 -0.5 4.6 -0.4 0.8 -1 1.4 -1.8 1.8 -0.8 0.4 -1.8 0.6 -2.9 0.6 -0.4 0 -0.8 0 -1.2 -0.1 -0.4 0 -0.8 -0.1 -1.1 -0.2 -0.3 -0.1 -0.8 -0.2 -1.3 -0.4 z m -5.9 -3.5 v -2 c -0.5 0.7 -1.1 1.3 -1.8 1.7 -0.6 0.4 -1.3 0.6 -2 0.6 -0.9 0 -1.6 -0.3 -2.2 -0.9 -0.6 -0.6 -0.9 -1.4 -0.9 -2.4 v -7.7 h 2 v 7 c 0 0.7 0 1.2 0.2 1.5 0.1 0.2 0.3 0.4 0.5 0.5 0.3 0.1 0.5 0.2 0.8 0.2 0.5 0 1 -0.1 1.6 -0.5 0.5 -0.3 1.1 -0.9 1.8 -1.9 v -6.9 h 1.9 v 10.7 h -1.9 z m -18.6 0 v -15.5 h 1.9 v 10 l 4.6 -5.2 h 2.1 l -4.4 5 l 5.3 5.7 h -2.5 l -5.1 -5.5 v 5.5 h -1.9 z m -5.9 0 v -15.5 h 2 v 15.5 h -2 z m -12.6 0 v -15.5 h 2 v 6.9 c 0.5 -0.7 1 -1.3 1.7 -1.7 0.6 -0.4 1.3 -0.6 2 -0.6 0.9 0 1.7 0.3 2.3 0.9 0.5 0.6 0.8 1.4 0.8 2.4 v 7.7 h -1.9 v -7 c 0 -0.7 -0.1 -1.2 -0.2 -1.5 -0.2 -0.2 -0.4 -0.4 -0.6 -0.5 -0.2 -0.1 -0.5 -0.2 -0.8 -0.2 -0.4 0 -1 0.1 -1.5 0.4 -0.6 0.3 -1.2 0.9 -1.8 1.9 v 6.9 h -2 z m -8.2 -1.2 c 1 0 1.7 -0.4 2.3 -1.1 0.5 -0.7 0.8 -1.7 0.8 -3.1 0 -1.3 -0.3 -2.3 -0.8 -3 -0.6 -0.7 -1.3 -1.1 -2.3 -1.1 -1 0 -1.7 0.4 -2.3 1.1 -0.5 0.7 -0.8 1.7 -0.8 3 0 1.3 0.3 2.3 0.8 3.1 0.6 0.7 1.3 1.1 2.3 1.1 z m 0 1.5 c -1 0 -1.9 -0.2 -2.7 -0.6 -0.7 -0.4 -1.3 -1.1 -1.8 -2 -0.4 -0.9 -0.6 -1.9 -0.6 -3 0 -1 0.2 -2 0.6 -2.9 0.4 -0.9 1 -1.6 1.7 -2 0.8 -0.5 1.7 -0.7 2.8 -0.7 1 0 1.9 0.2 2.7 0.6 0.7 0.4 1.3 1.1 1.8 2 0.4 0.9 0.6 1.9 0.6 3 0 1 -0.2 2 -0.6 2.9 -0.4 0.9 -1 1.6 -1.7 2 -0.8 0.4 -1.7 0.7 -2.8 0.7 z m -19.3 -0.3 v -14.6 h 2.1 v 6.1 h 7 v -6.1 h 2.1 v 14.6 h -2.1 v -6.9 h -7 v 6.9 h -2.1 z m 14.3 320 v -15.6 h 1.9 v 10 l 4.6 -5.2 h 2.1 l -4.4 5 l 5.3 5.7 h -2.5 l -5.1 -5.5 v 5.5 h -1.9 z m 16 0.2 c -1 0 -1.9 -0.2 -2.7 -0.6 -0.7 -0.4 -1.3 -1.1 -1.8 -2 -0.4 -0.9 -0.6 -1.9 -0.6 -3 0 -1 0.2 -2 0.6 -2.9 0.4 -0.9 1 -1.5 1.7 -2 0.8 -0.4 1.7 -0.7 2.8 -0.7 1 0 1.9 0.2 2.7 0.7 0.7 0.4 1.3 1 1.8 1.9 0.4 0.9 0.6 1.9 0.6 3 0 1.1 -0.2 2 -0.6 2.9 -0.4 0.9 -1 1.6 -1.7 2 -0.8 0.5 -1.7 0.7 -2.8 0.7 z m 0 -1.4 c 1 0 1.7 -0.4 2.3 -1.1 0.5 -0.7 0.8 -1.8 0.8 -3.1 0 -1.3 -0.3 -2.3 -0.8 -3 -0.6 -0.7 -1.3 -1.1 -2.3 -1.1 -1 0 -1.7 0.4 -2.2 1.1 -0.6 0.7 -0.9 1.7 -0.9 3 0 1.3 0.3 2.4 0.9 3.1 0.5 0.7 1.2 1.1 2.2 1.1 z m 8.2 1.2 v -10.7 h 2 v 2 c 0.4 -0.6 0.9 -1.2 1.5 -1.6 0.6 -0.4 1.3 -0.7 2.1 -0.7 0.5 0 0.9 0.1 1.3 0.3 0.3 0.1 0.6 0.3 0.9 0.6 0.3 0.3 0.6 0.7 0.8 1.4 0.4 -0.7 0.9 -1.2 1.5 -1.6 0.6 -0.5 1.3 -0.7 2.1 -0.7 0.8 0 1.4 0.3 2.1 0.7 0.6 0.5 0.9 1.3 0.9 2.5 v 7.8 h -2 v -7.5 c 0 -0.7 -0.1 -1.2 -0.4 -1.5 -0.3 -0.2 -0.7 -0.3 -1 -0.3 -0.5 0 -1 0.1 -1.5 0.4 -0.5 0.3 -1.1 0.8 -1.7 1.7 v 7.2 h -2 v -7.5 c 0 -0.7 -0.1 -1.2 -0.4 -1.5 -0.3 -0.2 -0.7 -0.3 -1.1 -0.3 -0.4 0 -0.9 0.1 -1.4 0.4 -0.5 0.3 -1.1 0.8 -1.7 1.7 v 7.2 h -2 z m 19 3.8 v -14.5 h 1.9 v 2 c 0.4 -0.8 0.9 -1.3 1.5 -1.7 0.6 -0.4 1.3 -0.6 2.1 -0.6 1.3 0 2.4 0.5 3.1 1.5 0.7 1 1.1 2.2 1.1 3.8 0 1 -0.2 2 -0.5 2.9 -0.4 0.9 -0.9 1.6 -1.6 2.2 -0.7 0.5 -1.5 0.8 -2.4 0.8 -0.4 0 -0.8 0 -1.4 -0.2 -0.6 -0.1 -1.2 -0.5 -1.9 -1.2 v 5 h -1.9 z m 1.9 -6.4 c 0.7 0.6 1.2 1 1.6 1.1 0.4 0.2 0.8 0.3 1.3 0.3 1 0 1.7 -0.4 2.1 -1.2 0.5 -0.8 0.7 -1.9 0.7 -3.1 0 -1.2 -0.2 -2.1 -0.6 -2.8 -0.4 -0.6 -1 -1 -1.9 -1 -0.5 0 -1.1 0.2 -1.6 0.5 -0.5 0.3 -1.1 0.7 -1.6 1.3 v 4.9 z m 10.8 2.6 v -10.7 h 2 v 2 c 0.4 -0.7 0.8 -1.3 1.4 -1.7 0.6 -0.4 1.3 -0.6 2 -0.6 0.2 0 0.4 0.1 0.6 0.1 v 1.8 c -0.3 -0.1 -0.6 -0.2 -0.9 -0.2 -0.6 0 -1.2 0.2 -1.7 0.6 -0.5 0.3 -1 0.9 -1.4 1.6 v 7.1 h -2 z m 8.4 0 v -10.7 h 1.9 v 10.7 h -1.9 z m 0 -12.7 v -1.9 h 1.9 v 1.9 h -1.9 z m 5.8 12.7 v -10.7 h 2 v 2 c 0.4 -0.6 0.9 -1.2 1.5 -1.6 0.6 -0.4 1.3 -0.7 2.2 -0.7 0.4 0 0.8 0.1 1.2 0.3 0.3 0.1 0.6 0.3 0.9 0.6 0.3 0.3 0.6 0.7 0.8 1.4 0.4 -0.7 0.9 -1.2 1.5 -1.6 0.6 -0.5 1.3 -0.7 2.1 -0.7 0.8 0 1.5 0.3 2.1 0.7 0.6 0.5 0.9 1.3 0.9 2.5 v 7.8 h -2 v -7.5 c 0 -0.7 -0.1 -1.2 -0.4 -1.5 -0.3 -0.2 -0.7 -0.3 -1 -0.3 -0.5 0 -1 0.1 -1.5 0.4 -0.5 0.3 -1 0.8 -1.7 1.7 v 7.2 h -2 v -7.5 c 0 -0.7 -0.1 -1.2 -0.4 -1.5 -0.3 -0.2 -0.7 -0.3 -1.1 -0.3 -0.4 0 -0.9 0.1 -1.4 0.4 -0.5 0.3 -1 0.8 -1.7 1.7 v 7.2 h -2 z m 19 0 v -10.7 h 1.9 v 10.7 h -1.9 z m 0 -12.7 v -1.9 h 1.9 v 1.9 h -1.9 z m 13.7 12.3 c -1.3 0.4 -2.4 0.6 -3.3 0.6 -1.7 0 -3 -0.6 -4 -1.7 -0.9 -1.1 -1.4 -2.4 -1.4 -3.9 0 -1 0.2 -2 0.6 -2.9 0.5 -0.9 1 -1.6 1.7 -2 0.7 -0.4 1.5 -0.7 2.4 -0.7 1.3 0 2.2 0.5 3 1.4 0.7 0.8 1.1 2.2 1.1 3.9 v 0.6 h -6.8 c 0.1 1 0.3 1.7 0.6 2.2 0.3 0.5 0.7 0.9 1.2 1.2 0.5 0.3 1.2 0.4 2 0.4 0.3 0 0.7 0 1.1 -0.1 0.4 0 1 -0.2 1.8 -0.5 v 1.5 z m -6.6 -6.1 h 4.7 c 0 -1.1 -0.2 -1.9 -0.6 -2.3 -0.4 -0.5 -1 -0.7 -1.6 -0.7 -0.8 0 -1.3 0.2 -1.8 0.7 -0.4 0.5 -0.6 1.3 -0.7 2.3 z m 10 6.5 v -10.7 h 1.9 v 2 c 0.4 -0.7 0.9 -1.3 1.5 -1.7 0.5 -0.4 1.2 -0.6 1.9 -0.6 0.2 0 0.4 0.1 0.6 0.1 v 1.8 c -0.3 -0.1 -0.6 -0.2 -0.9 -0.2 -0.6 0 -1.2 0.2 -1.7 0.6 -0.5 0.3 -1 0.9 -1.4 1.6 v 7.1 h -1.9 z m 13 0 c -0.6 0.1 -1.1 0.2 -1.6 0.2 -1 0 -1.7 -0.3 -2.3 -0.8 -0.6 -0.6 -0.8 -1.4 -0.8 -2.4 v -6.3 h -1.4 v -1.4 h 1.4 v -2 l 1.9 -0.1 v 2.1 h 2.8 v 1.4 h -2.8 v 6 c 0 0.7 0.2 1.2 0.5 1.6 0.2 0.3 0.7 0.5 1.3 0.5 0.3 0 0.6 -0.1 1 -0.2 v 1.4 z m 10.7 -0.4 c -1.3 0.4 -2.4 0.6 -3.4 0.6 -1.6 0 -3 -0.6 -3.9 -1.7 -1 -1.1 -1.5 -2.4 -1.5 -3.9 0 -1 0.3 -2 0.7 -2.9 0.4 -0.9 1 -1.6 1.6 -2 0.7 -0.4 1.5 -0.7 2.5 -0.7 1.2 0 2.2 0.5 2.9 1.4 0.8 0.8 1.1 2.2 1.1 3.9 v 0.6 h -6.8 c 0.1 1 0.3 1.7 0.7 2.2 0.3 0.5 0.7 0.9 1.2 1.2 0.5 0.3 1.1 0.4 1.9 0.4 0.4 0 0.8 0 1.2 -0.1 0.4 0 1 -0.2 1.8 -0.5 v 1.5 z m -6.7 -6.1 h 4.8 c 0 -1.1 -0.2 -1.9 -0.7 -2.3 -0.4 -0.5 -0.9 -0.7 -1.6 -0.7 -0.7 0 -1.3 0.2 -1.7 0.7 -0.4 0.5 -0.7 1.3 -0.8 2.3 z m 10 6.5 v -10.7 h 1.9 v 2 c 0.4 -0.7 0.9 -1.3 1.5 -1.7 0.6 -0.4 1.2 -0.6 1.9 -0.6 0.2 0 0.4 0.1 0.6 0.1 v 1.8 c -0.3 -0.1 -0.6 -0.2 -0.8 -0.2 -0.7 0 -1.2 0.2 -1.7 0.6 -0.6 0.3 -1 0.9 -1.5 1.6 v 7.1 h -1.9 z m -135 20 v -14.6 h 4 c 1.4 0 2.4 0.2 3.1 0.5 0.6 0.2 1.1 0.7 1.4 1.2 0.3 0.6 0.5 1.3 0.5 2.2 0 1 -0.2 1.8 -0.7 2.6 -0.4 0.7 -1.1 1.3 -2.1 1.7 -1 0.4 -2 0.6 -3.2 0.6 h -0.9 v 5.8 h -2.1 z m 2.1 -7.3 h 0.8 c 1.4 0 2.4 -0.4 3 -1 0.6 -0.6 0.9 -1.4 0.9 -2.3 0 -0.5 -0.1 -0.9 -0.3 -1.3 -0.2 -0.3 -0.5 -0.6 -0.9 -0.8 -0.4 -0.2 -1.2 -0.3 -2.2 -0.3 h -1.3 v 5.7 z m 9.2 7.3 v -15.5 h 1.9 v 15.5 h -1.9 z m 12.6 0 v -2 c -0.5 0.7 -1.1 1.3 -1.7 1.7 -0.7 0.4 -1.4 0.6 -2.1 0.6 -0.9 0 -1.6 -0.3 -2.2 -0.9 -0.6 -0.6 -0.9 -1.4 -0.9 -2.4 v -7.7 h 2 v 7.1 c 0 0.7 0.1 1.2 0.2 1.4 0.1 0.3 0.3 0.5 0.5 0.6 0.3 0.1 0.5 0.2 0.8 0.2 0.5 0 1 -0.2 1.6 -0.5 0.5 -0.3 1.1 -0.9 1.8 -1.8 v -7 h 1.9 v 10.7 h -1.9 z m 10.7 0 c -0.6 0.2 -1.2 0.3 -1.6 0.3 -1 0 -1.7 -0.3 -2.3 -0.9 -0.6 -0.5 -0.8 -1.3 -0.8 -2.3 v -6.3 h -1.4 v -1.5 h 1.4 v -1.9 l 1.9 -0.2 v 2.1 h 2.8 v 1.5 h -2.8 v 5.9 c 0 0.8 0.2 1.3 0.4 1.6 0.3 0.3 0.8 0.5 1.4 0.5 0.3 0 0.6 0 1 -0.1 v 1.3 z m 7.1 0.3 c -1.1 0 -1.9 -0.3 -2.7 -0.7 -0.8 -0.4 -1.4 -1 -1.8 -1.9 -0.4 -0.9 -0.7 -1.9 -0.7 -3 0 -1.1 0.2 -2 0.6 -2.9 0.4 -0.9 1 -1.6 1.8 -2 0.8 -0.5 1.7 -0.7 2.8 -0.7 1 0 1.9 0.2 2.6 0.6 0.8 0.4 1.4 1.1 1.8 2 0.5 0.9 0.7 1.9 0.7 3 0 1 -0.2 2 -0.6 2.9 -0.4 0.9 -1 1.5 -1.8 2 -0.7 0.4 -1.7 0.7 -2.7 0.7 z m 0 -1.5 c 0.9 0 1.7 -0.4 2.2 -1.1 0.6 -0.7 0.8 -1.7 0.8 -3 0 -1.4 -0.2 -2.4 -0.8 -3.1 -0.5 -0.7 -1.3 -1.1 -2.2 -1.1 -1 0 -1.7 0.4 -2.3 1.1 -0.5 0.7 -0.8 1.7 -0.8 3.1 0 1.3 0.3 2.3 0.8 3 0.6 0.7 1.3 1.1 2.3 1.1 z m 8.2 1.2 v -10.7 h 1.9 v 2 c 0.5 -0.7 1.1 -1.2 1.8 -1.6 0.6 -0.4 1.3 -0.6 2 -0.6 0.9 0 1.7 0.3 2.2 0.8 0.6 0.6 0.9 1.4 0.9 2.4 v 7.7 h -2 v -7 c 0 -0.8 0 -1.3 -0.2 -1.5 -0.1 -0.2 -0.3 -0.4 -0.5 -0.5 -0.3 -0.2 -0.5 -0.2 -0.8 -0.2 -0.5 0 -1 0.1 -1.6 0.4 -0.5 0.3 -1.1 0.9 -1.8 1.9 v 6.9 h -1.9 z m 12.6 0 v -10.7 h 1.9 v 10.7 h -1.9 z m 0 -12.6 v -2 h 1.9 v 2 h -1.9 z m 12.6 12.6 v -2 c -0.5 0.7 -1.1 1.3 -1.7 1.7 -0.7 0.4 -1.4 0.6 -2.1 0.6 -0.9 0 -1.6 -0.3 -2.2 -0.9 -0.6 -0.6 -0.9 -1.4 -0.9 -2.4 v -7.7 h 2 v 7.1 c 0 0.7 0.1 1.2 0.2 1.4 0.1 0.3 0.3 0.5 0.5 0.6 0.3 0.1 0.5 0.2 0.8 0.2 0.5 0 1 -0.2 1.6 -0.5 0.5 -0.3 1.1 -0.9 1.8 -1.8 v -7 h 1.9 v 10.7 h -1.9 z m 5.9 0 v -10.7 h 1.9 v 2 c 0.4 -0.6 0.9 -1.1 1.5 -1.6 0.7 -0.4 1.4 -0.6 2.2 -0.6 0.5 0 0.9 0.1 1.2 0.2 0.4 0.2 0.7 0.4 1 0.7 0.3 0.2 0.5 0.7 0.7 1.3 0.4 -0.6 0.9 -1.1 1.5 -1.6 0.7 -0.4 1.4 -0.6 2.1 -0.6 0.8 0 1.5 0.2 2.1 0.7 0.6 0.5 0.9 1.3 0.9 2.4 v 7.8 h -1.9 v -7.5 c 0 -0.7 -0.2 -1.1 -0.5 -1.4 -0.3 -0.3 -0.6 -0.4 -1 -0.4 -0.4 0 -0.9 0.2 -1.4 0.4 -0.5 0.3 -1.1 0.9 -1.8 1.7 v 7.2 h -1.9 v -7.5 c 0 -0.7 -0.2 -1.2 -0.5 -1.4 -0.3 -0.3 -0.6 -0.4 -1 -0.4 -0.5 0 -1 0.1 -1.4 0.4 -0.5 0.3 -1.1 0.9 -1.8 1.7 v 7.2 h -1.9 z m 18.9 0 v -15.5 h 2 v 10 l 4.5 -5.2 h 2.1 l -4.3 5 l 5.2 5.7 h -2.5 l -5 -5.5 v 5.5 h -2 z m 19.8 -0.3 c -1.3 0.4 -2.5 0.6 -3.4 0.6 -1.7 0 -3 -0.6 -3.9 -1.7 -1 -1.1 -1.5 -2.5 -1.5 -4 0 -1 0.2 -1.9 0.7 -2.8 0.4 -1 0.9 -1.6 1.6 -2.1 0.7 -0.4 1.5 -0.6 2.4 -0.6 1.3 0 2.3 0.4 3 1.3 0.7 0.9 1.1 2.2 1.1 4 v 0.6 h -6.8 c 0.1 0.9 0.3 1.6 0.6 2.2 0.3 0.5 0.7 0.9 1.2 1.2 0.6 0.2 1.2 0.4 2 0.4 0.4 0 0.8 -0.1 1.2 -0.1 0.4 -0.1 1 -0.3 1.8 -0.6 v 1.6 z m -6.7 -6.2 h 4.8 c 0 -1.1 -0.3 -1.8 -0.7 -2.3 -0.4 -0.4 -0.9 -0.7 -1.6 -0.7 -0.7 0 -1.3 0.3 -1.7 0.8 -0.5 0.5 -0.7 1.2 -0.8 2.2 z m 10 6.5 v -10.7 h 1.9 v 2 c 0.4 -0.7 0.9 -1.2 1.5 -1.6 0.6 -0.4 1.2 -0.6 1.9 -0.6 0.2 0 0.4 0 0.6 0 v 1.8 c -0.3 -0.1 -0.6 -0.1 -0.9 -0.1 -0.6 0 -1.1 0.2 -1.7 0.5 -0.5 0.4 -1 0.9 -1.4 1.7 v 7 h -1.9 z m 8.3 0 v -10.7 h 2 v 2 c 0.5 -0.7 1 -1.2 1.7 -1.6 0.6 -0.4 1.3 -0.6 2 -0.6 0.9 0 1.7 0.3 2.3 0.8 0.5 0.6 0.8 1.4 0.8 2.4 v 7.7 h -1.9 v -7 c 0 -0.8 -0.1 -1.3 -0.2 -1.5 -0.2 -0.2 -0.4 -0.4 -0.6 -0.5 -0.2 -0.2 -0.5 -0.2 -0.8 -0.2 -0.4 0 -1 0.1 -1.5 0.4 -0.6 0.3 -1.2 0.9 -1.8 1.9 v 6.9 h -2 z m -597 -2.3 v -2 c 1.2 0.5 2 0.9 2.6 1 0.5 0.1 1 0.1 1.5 0.1 0.8 0 1.5 -0.2 2 -0.6 0.5 -0.5 0.7 -1 0.7 -1.7 0 -0.5 -0.1 -0.9 -0.4 -1.3 -0.3 -0.4 -0.9 -0.9 -1.9 -1.5 l -1 -0.6 c -1.3 -0.7 -2.3 -1.4 -2.7 -2 -0.5 -0.7 -0.7 -1.4 -0.7 -2.1 0 -0.7 0.2 -1.4 0.5 -2 0.4 -0.6 0.9 -1 1.5 -1.4 0.6 -0.3 1.4 -0.5 2.3 -0.5 1.1 0 2.3 0.2 3.6 0.6 v 1.9 c -1.1 -0.5 -1.8 -0.7 -2.2 -0.8 -0.4 -0.1 -0.8 -0.2 -1.2 -0.2 -0.8 0 -1.5 0.3 -1.9 0.7 -0.4 0.4 -0.6 0.9 -0.6 1.4 0 0.3 0.1 0.6 0.3 0.9 0.2 0.3 0.5 0.6 0.8 0.8 0.3 0.3 0.8 0.6 1.3 0.9 l 1 0.6 c 1.4 0.7 2.3 1.4 2.7 2.1 0.5 0.6 0.7 1.4 0.7 2.2 0 1.1 -0.4 2.1 -1.3 2.9 -0.9 0.9 -2.2 1.3 -3.8 1.3 -0.5 0 -1 0 -1.5 -0.1 -0.5 -0.1 -1.3 -0.3 -2.3 -0.6 z m 11.9 4.2 v -14.6 h 2 v 2 c 0.4 -0.7 0.9 -1.3 1.5 -1.6 0.6 -0.4 1.3 -0.6 2.1 -0.6 1.3 0 2.3 0.5 3.1 1.5 0.7 0.9 1.1 2.2 1.1 3.8 0 1 -0.2 1.9 -0.5 2.9 -0.3 0.9 -0.9 1.6 -1.6 2.2 -0.7 0.5 -1.5 0.8 -2.4 0.8 -0.4 0 -0.8 -0.1 -1.4 -0.2 -0.6 -0.1 -1.2 -0.5 -1.9 -1.3 v 5.1 h -2 z m 2 -6.4 c 0.7 0.6 1.2 0.9 1.6 1.1 0.4 0.1 0.8 0.2 1.3 0.2 1 0 1.7 -0.4 2.1 -1.2 0.5 -0.8 0.7 -1.8 0.7 -3 0 -1.2 -0.2 -2.1 -0.6 -2.8 -0.4 -0.7 -1 -1 -1.9 -1 -0.5 0 -1.1 0.1 -1.6 0.4 -0.5 0.3 -1.1 0.8 -1.6 1.4 v 4.9 z m 10.8 2.5 v -10.7 h 2 v 2 c 0.4 -0.7 0.9 -1.2 1.4 -1.6 0.6 -0.4 1.2 -0.6 1.9 -0.6 0.2 0 0.4 0 0.6 0.1 v 1.8 c -0.3 -0.1 -0.6 -0.2 -0.9 -0.2 -0.6 0 -1.2 0.2 -1.7 0.5 -0.5 0.4 -1 1 -1.4 1.7 v 7 h -1.9 z m 16.2 -0.3 c -1.3 0.4 -2.4 0.6 -3.4 0.6 -1.7 0 -3 -0.6 -3.9 -1.7 -1 -1.1 -1.4 -2.4 -1.4 -4 0 -1 0.2 -1.9 0.6 -2.8 0.4 -0.9 1 -1.6 1.7 -2 0.7 -0.5 1.5 -0.7 2.4 -0.7 1.2 0 2.2 0.4 3 1.3 0.7 0.9 1.1 2.2 1.1 4 v 0.6 h -6.8 c 0.1 0.9 0.3 1.7 0.6 2.2 0.3 0.5 0.7 0.9 1.2 1.2 0.5 0.3 1.1 0.4 1.9 0.4 0.4 0 0.8 0 1.2 -0.1 0.4 -0.1 1 -0.3 1.8 -0.6 v 1.6 z m -6.7 -6.2 h 4.8 c 0 -1 -0.2 -1.8 -0.6 -2.3 -0.4 -0.4 -1 -0.6 -1.6 -0.6 -0.8 0 -1.3 0.2 -1.8 0.7 -0.4 0.5 -0.7 1.2 -0.8 2.2 z m 10 6.5 v -10.7 h 2 v 2 c 0.5 -0.7 1.1 -1.2 1.7 -1.6 0.6 -0.4 1.3 -0.6 2 -0.6 0.9 0 1.7 0.3 2.2 0.9 0.6 0.5 0.9 1.3 0.9 2.4 v 7.6 h -2 v -7 c 0 -0.8 -0.1 -1.2 -0.2 -1.5 -0.1 -0.2 -0.3 -0.4 -0.6 -0.5 -0.2 -0.2 -0.5 -0.2 -0.8 -0.2 -0.5 0 -1 0.1 -1.6 0.4 -0.6 0.3 -1.2 0.9 -1.8 1.9 v 6.9 h -2 z m 12.6 3.6 l 0.2 -1.7 c 1.1 0.5 2.3 0.8 3.4 0.8 1.2 0 2.1 -0.3 2.6 -0.9 0.5 -0.7 0.7 -1.5 0.7 -2.6 v -1.7 c -0.3 0.6 -0.7 1.1 -1.3 1.6 -0.6 0.5 -1.3 0.7 -2.2 0.7 -1.5 0 -2.5 -0.5 -3.2 -1.6 -0.7 -1.1 -1 -2.2 -1 -3.6 0 -1 0.2 -2 0.6 -2.8 0.4 -0.9 0.9 -1.6 1.6 -2 0.7 -0.5 1.5 -0.7 2.4 -0.7 0.4 0 0.8 0.1 1.1 0.1 0.3 0.1 0.7 0.3 1 0.5 0.3 0.1 0.6 0.4 1 0.9 v -1.3 h 2 v 7.8 c 0 2.3 -0.2 3.8 -0.6 4.7 -0.4 0.8 -1 1.4 -1.8 1.8 -0.8 0.4 -1.8 0.5 -2.9 0.5 -0.4 0 -0.8 0 -1.2 0 -0.4 -0.1 -0.8 -0.1 -1.1 -0.2 -0.3 0 -0.8 -0.1 -1.3 -0.3 z m 6.9 -7.3 v -4.4 c -0.4 -0.5 -0.9 -0.8 -1.3 -1 -0.5 -0.2 -0.9 -0.3 -1.5 -0.3 -0.9 0 -1.6 0.3 -2.1 1 -0.5 0.7 -0.8 1.7 -0.8 3 0 1 0.2 1.9 0.6 2.5 0.4 0.7 1 1 1.9 1 0.6 0 1.1 -0.2 1.6 -0.5 0.5 -0.3 1.1 -0.7 1.5 -1.3 z m 5.3 3.4 v -1.8 c 1.3 0.6 2.4 0.9 3.3 0.9 0.6 0 1 -0.1 1.4 -0.4 0.4 -0.3 0.6 -0.7 0.6 -1.2 0 -0.3 -0.1 -0.5 -0.3 -0.8 -0.2 -0.3 -0.6 -0.5 -1.3 -0.8 l -1.1 -0.5 c -0.9 -0.4 -1.5 -0.8 -1.9 -1.3 -0.4 -0.4 -0.6 -1 -0.6 -1.7 0 -0.9 0.3 -1.6 0.9 -2.1 0.6 -0.6 1.6 -0.9 2.8 -0.9 0.6 0 1.3 0.1 2.2 0.3 h 0.4 v 1.6 c -1.1 -0.3 -2 -0.4 -2.6 -0.4 -0.6 0 -1.1 0.1 -1.4 0.4 -0.3 0.2 -0.5 0.6 -0.5 0.9 0 0.3 0.1 0.6 0.3 0.8 0.2 0.2 0.6 0.5 1.1 0.7 l 0.9 0.4 c 1.3 0.5 2.1 1 2.4 1.6 0.3 0.5 0.5 1 0.5 1.7 0 0.5 -0.2 1.1 -0.5 1.6 -0.3 0.5 -0.8 0.9 -1.4 1.1 -0.6 0.3 -1.3 0.5 -2.1 0.5 -0.9 0 -2 -0.2 -3.3 -0.6 z m 15.5 0.3 c -0.6 0.2 -1.1 0.3 -1.6 0.3 -1 0 -1.7 -0.3 -2.3 -0.9 -0.6 -0.5 -0.9 -1.3 -0.9 -2.3 v -6.3 h -1.3 v -1.5 h 1.3 v -1.9 l 2 -0.2 v 2.1 h 2.8 v 1.5 h -2.8 v 5.9 c 0 0.8 0.1 1.3 0.4 1.6 0.3 0.4 0.8 0.5 1.4 0.5 0.3 0 0.6 0 0.9 -0.1 v 1.3 z m 7.1 0.3 c -1 0 -1.9 -0.2 -2.7 -0.7 -0.8 -0.4 -1.4 -1 -1.8 -1.9 -0.4 -0.9 -0.7 -1.9 -0.7 -3 0 -1.1 0.2 -2 0.6 -2.9 0.4 -0.9 1 -1.6 1.8 -2 0.8 -0.5 1.7 -0.7 2.8 -0.7 1 0 1.9 0.2 2.7 0.6 0.8 0.4 1.4 1.1 1.8 2 0.4 0.9 0.7 1.9 0.7 3 0 1 -0.2 2 -0.6 2.9 -0.4 0.9 -1 1.5 -1.8 2 -0.8 0.4 -1.7 0.7 -2.8 0.7 z m 0 -1.5 c 1 0 1.7 -0.3 2.3 -1.1 0.5 -0.7 0.8 -1.7 0.8 -3 0 -1.3 -0.3 -2.4 -0.8 -3.1 -0.5 -0.7 -1.3 -1 -2.3 -1 -1 0 -1.7 0.3 -2.3 1 -0.5 0.7 -0.8 1.8 -0.8 3.1 0 1.3 0.3 2.3 0.8 3 0.5 0.8 1.3 1.1 2.3 1.1 z m 8.6 1.2 v -9.2 h -1.5 v -1.5 h 1.5 v -1.2 c 0 -0.9 0.1 -1.6 0.3 -2.1 0.2 -0.5 0.6 -0.9 1.1 -1.3 0.5 -0.3 1.2 -0.5 2 -0.5 0.7 0 1.4 0.2 2.2 0.4 v 1.5 c -0.9 -0.3 -1.6 -0.4 -2.1 -0.4 -0.3 0 -0.6 0 -0.8 0.1 -0.3 0.1 -0.4 0.3 -0.6 0.6 -0.2 0.2 -0.2 0.7 -0.2 1.5 v 1.4 h 2.7 v 1.5 h -2.7 v 9.2 h -2 z m 7.4 0 v -9.2 h -1.5 v -1.5 h 1.5 v -1.2 c 0 -0.9 0.1 -1.6 0.3 -2.1 0.2 -0.5 0.6 -0.9 1.1 -1.3 0.5 -0.3 1.2 -0.5 2 -0.5 0.7 0 1.4 0.2 2.2 0.4 v 1.5 c -0.9 -0.3 -1.6 -0.4 -2.1 -0.4 -0.3 0 -0.6 0 -0.8 0.1 -0.3 0.1 -0.5 0.3 -0.6 0.6 -0.1 0.2 -0.2 0.7 -0.2 1.5 v 1.4 h 2.7 v 1.5 h -2.7 v 9.2 h -2 z m 7.1 0 v -15.5 h 1.9 v 15.5 h -1.9 z m 5.9 0 v -10.7 h 1.9 v 10.7 h -1.9 z m 0 -12.6 v -1.9 h 1.9 v 1.9 h -1.9 z m 5.9 12.6 v -10.7 h 2 v 2 c 0.5 -0.7 1.1 -1.2 1.7 -1.6 0.7 -0.4 1.3 -0.6 2 -0.6 0.9 0 1.6 0.3 2.2 0.9 0.6 0.5 0.9 1.3 0.9 2.4 v 7.6 h -2 v -7 c 0 -0.8 -0.1 -1.2 -0.2 -1.5 -0.1 -0.2 -0.3 -0.4 -0.6 -0.5 -0.2 -0.2 -0.5 -0.2 -0.8 -0.2 -0.5 0 -1 0.1 -1.6 0.4 -0.6 0.3 -1.2 0.9 -1.8 1.9 v 6.9 h -2 z m 12.2 -0.3 v -1.8 c 1.3 0.6 2.4 0.9 3.3 0.9 0.6 0 1 -0.1 1.4 -0.4 0.4 -0.3 0.6 -0.7 0.6 -1.2 0 -0.3 -0.1 -0.5 -0.3 -0.8 -0.2 -0.3 -0.6 -0.5 -1.3 -0.8 l -1.1 -0.5 c -0.9 -0.4 -1.5 -0.8 -1.9 -1.3 -0.4 -0.4 -0.6 -1 -0.6 -1.7 0 -0.9 0.3 -1.6 0.9 -2.1 0.6 -0.6 1.6 -0.9 2.8 -0.9 0.6 0 1.3 0.1 2.2 0.3 h 0.4 v 1.6 c -1.1 -0.3 -2 -0.4 -2.6 -0.4 -0.6 0 -1.1 0.1 -1.4 0.4 -0.3 0.2 -0.5 0.6 -0.5 0.9 0 0.3 0.1 0.6 0.3 0.8 0.2 0.2 0.6 0.5 1.1 0.7 l 0.9 0.4 c 1.3 0.5 2.1 1 2.4 1.6 0.3 0.5 0.5 1 0.5 1.7 0 0.5 -0.2 1.1 -0.5 1.6 -0.3 0.5 -0.8 0.9 -1.4 1.1 -0.6 0.3 -1.3 0.5 -2.1 0.5 -0.9 0 -2 -0.2 -3.3 -0.6 z m 18.6 0 c -1.3 0.4 -2.4 0.6 -3.4 0.6 -1.7 0 -3 -0.6 -4 -1.7 -1 -1.1 -1.4 -2.4 -1.4 -4 0 -1 0.2 -1.9 0.6 -2.8 0.4 -0.9 1 -1.6 1.7 -2 0.7 -0.5 1.5 -0.7 2.4 -0.7 1.2 0 2.2 0.4 3 1.3 0.7 0.9 1.1 2.2 1.1 4 v 0.6 h -6.8 c 0.1 0.9 0.3 1.7 0.6 2.2 0.3 0.5 0.7 0.9 1.2 1.2 0.5 0.3 1.2 0.4 1.9 0.4 0.4 0 0.8 0 1.2 -0.1 0.4 -0.1 1 -0.3 1.8 -0.6 v 1.6 z m -6.7 -6.2 h 4.8 c 0 -1 -0.2 -1.8 -0.6 -2.3 -0.4 -0.4 -1 -0.6 -1.6 -0.6 -0.7 0 -1.3 0.2 -1.8 0.7 -0.4 0.5 -0.7 1.2 -0.8 2.2 z m 10 6.5 v -10.7 h 2 v 2 c 0.5 -0.7 1.1 -1.2 1.7 -1.6 0.7 -0.4 1.3 -0.6 2 -0.6 0.9 0 1.7 0.3 2.2 0.9 0.6 0.5 0.8 1.3 0.8 2.4 v 7.6 h -2 v -7 c 0 -0.8 -0.1 -1.2 -0.2 -1.5 -0.1 -0.2 -0.3 -0.4 -0.6 -0.5 -0.2 -0.2 -0.5 -0.2 -0.8 -0.2 -0.5 0 -1 0.1 -1.6 0.4 -0.6 0.3 -1.2 0.9 -1.8 1.9 v 6.9 h -2 z m -143 -330 v -14.6 h 2.1 v 6.1 h 7 v -6.1 h 2.1 v 14.6 h -2.1 v -6.9 h -7 v 6.9 h -2.1 z m 19.3 0.3 c -1 0 -1.9 -0.2 -2.7 -0.6 -0.8 -0.4 -1.4 -1.1 -1.8 -2 -0.5 -0.9 -0.7 -1.9 -0.7 -3 0 -1 0.2 -2 0.6 -2.9 0.4 -0.9 1 -1.6 1.8 -2 0.8 -0.5 1.7 -0.7 2.8 -0.7 1 0 1.9 0.2 2.7 0.6 0.8 0.4 1.4 1.1 1.8 2 0.4 0.9 0.7 1.9 0.7 3 0 1 -0.2 2 -0.6 2.9 -0.4 0.9 -1 1.6 -1.8 2 -0.8 0.4 -1.7 0.7 -2.8 0.7 z m 0 -1.5 c 1 0 1.7 -0.4 2.3 -1.1 0.5 -0.7 0.8 -1.7 0.8 -3.1 0 -1.3 -0.3 -2.3 -0.8 -3 -0.5 -0.7 -1.3 -1.1 -2.3 -1.1 -1 0 -1.7 0.4 -2.3 1.1 -0.5 0.7 -0.8 1.7 -0.8 3 0 1.3 0.3 2.3 0.8 3.1 0.5 0.7 1.3 1.1 2.3 1.1 z m 15.7 0.9 c -1.3 0.4 -2.4 0.6 -3.3 0.6 -1 0 -1.8 -0.3 -2.6 -0.8 -0.8 -0.5 -1.4 -1.2 -1.8 -2 -0.4 -0.8 -0.6 -1.8 -0.6 -2.8 0 -1.6 0.4 -2.9 1.3 -3.9 0.9 -1 2.2 -1.6 4.1 -1.6 0.8 0 1.8 0.1 2.8 0.4 v 1.6 c -1.1 -0.3 -2 -0.5 -2.7 -0.5 -1.1 0 -1.9 0.4 -2.5 1.2 -0.6 0.8 -0.8 1.8 -0.8 2.9 0 1.2 0.3 2.2 0.9 2.9 0.6 0.7 1.4 1.1 2.4 1.1 0.9 0 1.8 -0.2 2.8 -0.7 v 1.7 z m 2.9 0.3 v -15.5 h 2 v 6.9 c 0.5 -0.7 1.1 -1.3 1.7 -1.7 0.6 -0.4 1.3 -0.6 2 -0.6 0.9 0 1.7 0.3 2.2 0.9 0.6 0.6 0.9 1.4 0.9 2.4 v 3.1 v 4.5 h -2 v -7 c 0 -0.7 -0.1 -1.2 -0.2 -1.5 -0.1 -0.2 -0.3 -0.4 -0.6 -0.5 -0.2 -0.1 -0.5 -0.2 -0.8 -0.2 -0.5 0 -1 0.1 -1.6 0.4 -0.6 0.3 -1.2 0.9 -1.8 1.9 v 6.9 h -2 z m 19.9 -0.3 c -1.3 0.4 -2.4 0.6 -3.4 0.6 -1.7 0 -3 -0.6 -3.9 -1.7 -1 -1.1 -1.4 -2.4 -1.4 -4 0 -1 0.2 -2 0.6 -2.9 0.4 -0.9 1 -1.6 1.7 -2 0.7 -0.4 1.5 -0.7 2.4 -0.7 1.2 0 2.2 0.5 3 1.3 0.7 0.9 1.1 2.2 1.1 4 v 0.6 h -6.8 c 0.1 0.9 0.3 1.7 0.6 2.2 0.3 0.5 0.7 0.9 1.2 1.2 0.5 0.3 1.1 0.4 1.9 0.4 0.4 0 0.8 0 1.2 -0.1 0.4 -0.1 1 -0.3 1.8 -0.5 v 1.5 z m -6.7 -6.2 h 4.8 c 0 -1.1 -0.2 -1.8 -0.6 -2.3 -0.4 -0.5 -0.9 -0.7 -1.6 -0.7 -0.7 0 -1.3 0.3 -1.8 0.7 -0.4 0.5 -0.7 1.2 -0.8 2.2 z m 9 6.5 l 4.1 -5.5 l -4 -5.2 h 2.3 l 3.2 4.1 l 2.8 -4.1 h 1.9 l -3.7 5.4 l 4.1 5.3 h -2.3 l -3.2 -4.2 l -3.1 4.2 h -2 z m 13.5 3.9 v -14.6 h 2 v 2 c 0.4 -0.8 0.9 -1.3 1.5 -1.7 0.6 -0.4 1.3 -0.6 2.1 -0.6 1.3 0 2.4 0.5 3.1 1.5 0.7 1 1.1 2.2 1.1 3.8 0 1 -0.2 2 -0.5 2.9 -0.3 0.9 -0.9 1.7 -1.6 2.2 -0.7 0.5 -1.5 0.8 -2.4 0.8 -0.4 0 -0.8 0 -1.4 -0.2 -0.6 -0.1 -1.2 -0.5 -1.9 -1.3 v 5.1 h -2 z m 2 -6.4 c 0.7 0.6 1.2 1 1.6 1.1 0.4 0.2 0.8 0.2 1.3 0.2 1 0 1.7 -0.4 2.1 -1.2 0.5 -0.8 0.7 -1.8 0.7 -3.1 0 -1.2 -0.2 -2.1 -0.6 -2.7 -0.4 -0.7 -1 -1 -1.9 -1 -0.5 0 -1.1 0.1 -1.6 0.4 -0.5 0.3 -1.1 0.7 -1.6 1.3 v 4.9 z m 10.8 2.5 v -15.5 h 2 v 15.5 h -2 z m 10.2 0.3 c -1 0 -1.9 -0.2 -2.7 -0.6 -0.8 -0.4 -1.4 -1.1 -1.8 -2 -0.4 -0.9 -0.7 -1.9 -0.7 -3 0 -1 0.2 -2 0.6 -2.9 0.4 -0.9 1 -1.6 1.8 -2 0.8 -0.5 1.7 -0.7 2.8 -0.7 1 0 1.9 0.2 2.7 0.6 0.8 0.4 1.4 1.1 1.8 2 0.4 0.9 0.7 1.9 0.7 3 0 1 -0.2 2 -0.6 2.9 -0.4 0.9 -1 1.6 -1.8 2 -0.8 0.4 -1.7 0.7 -2.8 0.7 z m 0 -1.5 c 1 0 1.7 -0.4 2.3 -1.1 0.5 -0.7 0.8 -1.7 0.8 -3.1 0 -1.3 -0.3 -2.3 -0.8 -3 -0.5 -0.7 -1.3 -1.1 -2.3 -1.1 -1 0 -1.7 0.4 -2.3 1.1 -0.5 0.7 -0.8 1.7 -0.8 3 0 1.3 0.3 2.3 0.8 3.1 0.5 0.7 1.3 1.1 2.3 1.1 z m 7.8 0.8 v -1.8 c 1.3 0.6 2.4 0.9 3.3 0.9 0.6 0 1 -0.2 1.4 -0.5 0.4 -0.3 0.6 -0.7 0.6 -1.1 0 -0.3 -0.1 -0.6 -0.3 -0.8 -0.2 -0.3 -0.6 -0.5 -1.3 -0.8 l -1.1 -0.5 c -0.9 -0.4 -1.5 -0.8 -1.9 -1.3 -0.4 -0.5 -0.6 -1.1 -0.6 -1.8 0 -0.9 0.3 -1.6 0.9 -2.1 0.6 -0.6 1.6 -0.9 2.8 -0.9 0.6 0 1.3 0.1 2.2 0.3 l 0.4 0.1 v 1.6 c -1.1 -0.3 -2 -0.5 -2.6 -0.5 -0.6 0 -1.1 0.1 -1.4 0.4 -0.3 0.3 -0.5 0.6 -0.5 1 0 0.3 0.1 0.5 0.3 0.8 0.2 0.2 0.6 0.5 1.1 0.7 l 0.9 0.4 c 1.3 0.5 2.1 1 2.4 1.6 0.3 0.5 0.5 1.1 0.5 1.7 0 0.6 -0.2 1.1 -0.5 1.6 -0.3 0.5 -0.8 0.9 -1.4 1.2 -0.6 0.3 -1.3 0.4 -2.1 0.4 -0.9 0 -2 -0.2 -3.3 -0.6 z m 10.8 0.4 v -10.7 h 2 v 10.7 h -2 z m 0 -12.6 v -1.9 h 2 v 1.9 h -2 z m 8.1 12.6 l -4 -10.7 h 2 l 3.1 8.3 l 3.3 -8.3 h 1.8 l -4.3 10.7 h -2 z m 16 -0.3 c -1.3 0.4 -2.4 0.6 -3.4 0.6 -1.7 0 -3 -0.6 -3.9 -1.7 -1 -1.1 -1.4 -2.4 -1.4 -4 0 -1 0.2 -2 0.6 -2.9 0.4 -0.9 1 -1.6 1.7 -2 0.7 -0.4 1.5 -0.7 2.4 -0.7 1.2 0 2.2 0.5 3 1.3 0.7 0.9 1.1 2.2 1.1 4 v 0.6 h -6.8 c 0.1 0.9 0.3 1.7 0.6 2.2 0.3 0.5 0.7 0.9 1.2 1.2 0.5 0.3 1.1 0.4 1.9 0.4 0.4 0 0.8 0 1.2 -0.1 0.4 -0.1 1 -0.3 1.8 -0.5 v 1.5 z m -6.7 -6.2 h 4.8 c 0 -1.1 -0.2 -1.8 -0.6 -2.3 -0.4 -0.5 -1 -0.7 -1.6 -0.7 -0.8 0 -1.3 0.3 -1.8 0.7 -0.4 0.5 -0.7 1.2 -0.8 2.2 z m 10 6.5 v -10.7 h 2 v 2 c 0.4 -0.7 0.8 -1.3 1.4 -1.7 0.6 -0.4 1.2 -0.6 1.9 -0.6 0.2 0 0.4 0 0.6 0.1 v 1.8 c -0.3 -0.1 -0.6 -0.2 -0.9 -0.2 -0.6 0 -1.2 0.2 -1.7 0.5 -0.5 0.4 -1 0.9 -1.4 1.6 v 7 h -2 z m -129 19.9 v -2 c 1.2 0.5 2 0.9 2.6 1 0.5 0.1 1 0.2 1.5 0.2 0.8 0 1.5 -0.2 2 -0.7 0.5 -0.5 0.7 -1 0.7 -1.6 0 -0.5 -0.1 -0.9 -0.4 -1.3 -0.3 -0.4 -0.9 -0.9 -1.9 -1.5 l -1 -0.6 c -1.4 -0.8 -2.3 -1.5 -2.7 -2.1 -0.5 -0.6 -0.7 -1.3 -0.7 -2.1 0 -0.7 0.2 -1.3 0.5 -1.9 0.4 -0.6 0.9 -1.1 1.5 -1.4 0.6 -0.3 1.4 -0.5 2.3 -0.5 1.1 0 2.3 0.2 3.6 0.6 v 1.9 c -1.1 -0.4 -1.8 -0.7 -2.3 -0.8 -0.4 -0.1 -0.8 -0.1 -1.2 -0.1 -0.9 0 -1.5 0.2 -1.9 0.7 -0.4 0.4 -0.6 0.9 -0.6 1.3 0 0.3 0.1 0.6 0.3 1 0.2 0.3 0.5 0.6 0.8 0.8 0.3 0.2 0.8 0.5 1.3 0.8 l 1 0.6 c 1.4 0.8 2.3 1.5 2.7 2.1 0.5 0.6 0.7 1.4 0.7 2.2 0 1.1 -0.4 2.1 -1.3 3 -0.9 0.8 -2.1 1.3 -3.9 1.3 -0.5 0 -1 0 -1.5 -0.1 -0.5 -0.1 -1.3 -0.3 -2.3 -0.5 z m 11.9 4.2 v -14.6 h 2 v 2 c 0.4 -0.7 0.9 -1.3 1.5 -1.7 0.6 -0.4 1.3 -0.6 2.1 -0.6 1.3 0 2.4 0.5 3.1 1.5 0.7 1 1.1 2.2 1.1 3.8 0 1 -0.2 2 -0.5 2.9 -0.3 0.9 -0.9 1.7 -1.6 2.2 -0.7 0.5 -1.5 0.8 -2.4 0.8 -0.4 0 -0.8 -0.1 -1.4 -0.2 -0.6 -0.1 -1.2 -0.5 -1.9 -1.3 v 5.1 h -2 z m 2 -6.4 c 0.7 0.6 1.2 1 1.6 1.1 0.4 0.2 0.8 0.2 1.3 0.2 1 0 1.7 -0.4 2.1 -1.2 0.5 -0.8 0.7 -1.8 0.7 -3.1 0 -1.2 -0.2 -2.1 -0.6 -2.7 -0.4 -0.7 -1 -1 -1.9 -1 -0.5 0 -1.1 0.2 -1.6 0.4 -0.5 0.3 -1.1 0.7 -1.6 1.3 v 4.9 z m 10.8 2.5 v -10.7 h 1.9 v 2 c 0.4 -0.7 0.9 -1.3 1.4 -1.7 0.6 -0.4 1.2 -0.6 1.9 -0.6 0.2 0 0.4 0 0.6 0 v 1.8 c -0.3 -0.1 -0.6 -0.2 -0.9 -0.2 -0.6 0 -1.2 0.2 -1.7 0.5 -0.5 0.4 -1 0.9 -1.4 1.6 v 7 h -1.9 z m 16.2 -0.3 c -1.3 0.4 -2.4 0.6 -3.4 0.6 -1.7 0 -3 -0.6 -3.9 -1.7 -0.9 -1.1 -1.4 -2.4 -1.4 -4 0 -1 0.2 -2 0.6 -2.9 0.4 -0.9 1 -1.6 1.7 -2 0.7 -0.4 1.5 -0.7 2.4 -0.7 1.2 0 2.2 0.4 3 1.3 0.7 0.9 1.1 2.2 1.1 4 v 0.6 h -6.8 c 0.1 1 0.3 1.7 0.6 2.2 0.3 0.5 0.7 0.9 1.2 1.2 0.5 0.3 1.1 0.4 1.9 0.4 0.4 0 0.8 0 1.2 -0.1 0.4 -0.1 1 -0.3 1.8 -0.5 v 1.5 z m -6.7 -6.2 h 4.8 c 0 -1.1 -0.2 -1.8 -0.6 -2.3 -0.4 -0.5 -1 -0.7 -1.6 -0.7 -0.8 0 -1.3 0.3 -1.8 0.7 -0.4 0.5 -0.7 1.2 -0.8 2.2 z m 10 6.5 v -10.7 h 1.9 v 2 c 0.5 -0.7 1.1 -1.3 1.7 -1.7 0.7 -0.4 1.3 -0.6 2 -0.6 0.9 0 1.6 0.3 2.2 0.9 0.6 0.6 0.8 1.4 0.8 2.4 v 7.7 h -2 v -7 c 0 -0.7 -0.1 -1.2 -0.2 -1.5 -0.1 -0.2 -0.3 -0.4 -0.5 -0.5 -0.2 -0.1 -0.5 -0.2 -0.8 -0.2 -0.5 0 -1 0.2 -1.6 0.5 -0.6 0.3 -1.2 0.9 -1.8 1.9 v 6.9 h -1.9 z m 12.6 3.5 l 0.2 -1.7 c 1.1 0.5 2.2 0.8 3.3 0.8 1.2 0 2.1 -0.3 2.6 -0.9 0.5 -0.6 0.7 -1.5 0.7 -2.5 v -1.7 c -0.3 0.6 -0.7 1.1 -1.3 1.6 -0.6 0.5 -1.3 0.7 -2.2 0.7 -1.5 0 -2.5 -0.5 -3.2 -1.6 -0.7 -1.1 -1 -2.3 -1 -3.6 0 -1 0.2 -2 0.6 -2.8 0.4 -0.9 0.9 -1.5 1.6 -2 0.7 -0.5 1.5 -0.7 2.4 -0.7 0.4 0 0.8 0 1.1 0.1 0.3 0.1 0.7 0.2 1 0.4 0.3 0.2 0.6 0.5 1 0.9 v -1.2 h 2 v 7.8 c 0 2.3 -0.2 3.8 -0.6 4.6 -0.4 0.8 -1 1.4 -1.8 1.8 -0.8 0.4 -1.8 0.6 -2.9 0.6 -0.4 0 -0.8 0 -1.2 -0.1 -0.4 0 -0.8 -0.1 -1.1 -0.2 -0.3 -0.1 -0.8 -0.2 -1.3 -0.4 z m 6.9 -7.3 v -4.4 c -0.4 -0.5 -0.9 -0.8 -1.3 -1 -0.5 -0.2 -1 -0.3 -1.5 -0.3 -0.9 0 -1.6 0.3 -2.1 1 -0.5 0.7 -0.8 1.7 -0.8 3 0 1 0.2 1.9 0.6 2.5 0.4 0.7 1 1 1.9 1 0.6 0 1.1 -0.1 1.7 -0.4 0.5 -0.3 1 -0.7 1.5 -1.3 z m 5.3 3.3 v -1.8 c 1.3 0.6 2.4 0.9 3.3 0.9 0.6 0 1 -0.2 1.4 -0.5 0.4 -0.3 0.6 -0.7 0.6 -1.1 0 -0.3 -0.1 -0.6 -0.3 -0.8 -0.2 -0.3 -0.6 -0.5 -1.3 -0.8 l -1.1 -0.5 c -0.9 -0.4 -1.5 -0.8 -1.9 -1.3 -0.4 -0.5 -0.6 -1 -0.6 -1.7 0 -0.9 0.3 -1.6 0.9 -2.1 0.6 -0.6 1.6 -0.9 2.8 -0.9 0.6 0 1.3 0.1 2.2 0.3 h 0.4 v 1.6 c -1.1 -0.3 -1.9 -0.5 -2.6 -0.5 -0.6 0 -1.1 0.1 -1.4 0.4 -0.3 0.3 -0.5 0.6 -0.5 1 0 0.3 0.1 0.5 0.3 0.8 0.2 0.2 0.6 0.5 1.1 0.7 l 0.9 0.4 c 1.3 0.5 2.1 1.1 2.4 1.6 0.4 0.5 0.5 1.1 0.5 1.7 0 0.6 -0.2 1.1 -0.5 1.6 -0.3 0.5 -0.8 0.9 -1.4 1.2 -0.6 0.3 -1.3 0.4 -2.1 0.4 -0.9 0 -2 -0.2 -3.3 -0.6 z m 15.6 0.4 c -0.6 0.2 -1.1 0.3 -1.6 0.3 -1 0 -1.7 -0.3 -2.3 -0.8 -0.6 -0.6 -0.9 -1.3 -0.9 -2.4 v -6.3 h -1.4 v -1.5 h 1.4 v -1.9 l 1.9 -0.2 v 2.1 h 2.8 v 1.5 h -2.8 v 5.9 c 0 0.7 0.1 1.3 0.4 1.6 0.3 0.3 0.8 0.5 1.4 0.5 0.3 0 0.6 0 0.9 -0.1 v 1.3 z m 7.1 0.3 c -1 0 -1.9 -0.2 -2.7 -0.6 -0.8 -0.4 -1.4 -1.1 -1.8 -2 -0.4 -0.9 -0.7 -1.9 -0.7 -3 0 -1 0.2 -2 0.6 -2.9 0.4 -0.9 1 -1.6 1.8 -2 0.8 -0.5 1.7 -0.7 2.8 -0.7 1 0 1.9 0.2 2.7 0.6 0.8 0.4 1.4 1.1 1.8 2 0.4 0.9 0.7 1.9 0.7 3 0 1 -0.2 2 -0.6 2.9 -0.4 0.9 -1 1.5 -1.8 2 -0.8 0.5 -1.7 0.7 -2.8 0.7 z m 0 -1.5 c 1 0 1.7 -0.4 2.3 -1.1 0.5 -0.7 0.8 -1.7 0.8 -3 0 -1.3 -0.3 -2.3 -0.8 -3.1 -0.5 -0.7 -1.3 -1.1 -2.3 -1.1 -1 0 -1.7 0.3 -2.3 1.1 -0.5 0.7 -0.8 1.7 -0.8 3.1 0 1.3 0.3 2.3 0.8 3 0.5 0.7 1.3 1.1 2.3 1.1 z m 8.6 1.2 v -9.2 h -1.5 v -1.5 h 1.5 v -1.3 c 0 -0.9 0.1 -1.6 0.3 -2.1 0.2 -0.5 0.6 -0.9 1.1 -1.3 0.5 -0.3 1.2 -0.5 2 -0.5 0.7 0 1.4 0.1 2.2 0.3 v 1.5 c -0.9 -0.3 -1.6 -0.4 -2.1 -0.4 -0.3 0 -0.6 0 -0.8 0.1 -0.3 0.1 -0.5 0.3 -0.6 0.5 -0.1 0.2 -0.2 0.7 -0.2 1.5 v 1.5 h 2.7 v 1.5 h -2.7 v 9.2 h -2 z m 7.5 0 v -9.2 h -1.5 v -1.5 h 1.5 v -1.3 c 0 -0.9 0.1 -1.6 0.3 -2.1 0.2 -0.5 0.6 -0.9 1.1 -1.3 0.5 -0.3 1.2 -0.5 2 -0.5 0.7 0 1.4 0.1 2.2 0.3 v 1.5 c -0.9 -0.3 -1.6 -0.4 -2.1 -0.4 -0.3 0 -0.6 0 -0.8 0.1 -0.3 0.1 -0.5 0.3 -0.6 0.5 -0.2 0.2 -0.2 0.7 -0.2 1.5 v 1.5 h 2.7 v 1.5 h -2.7 v 9.2 h -2 z"/><g stroke="#000" stroke-width="4.9"><ellipse ry="166" rx="165" cy="249" cx="214" fill="none"/><ellipse ry="188" rx="188" cy="249" cx="214" fill="#808080"/></g><ellipse ry="166" rx="165" cy="249" cx="214" fill="#fede58"/><g transform="matrix(1.646 0 0 1.652 -134 -308)" fill="none" stroke="#f90" stroke-width="3"><path d="m 212 237 v 201"/><path d="m 111 337 h 201"/><path d="m 141 266 l 142 142"/><path d="m 141 408 l 142 -142"/></g><ellipse ry="73" rx="72.9" cy="249" cx="214" fill="#ccecf4"/><ellipse ry="59.8" rx="60" cy="249" cx="214" fill="#99d9e8"/><ellipse ry="45" rx="45" cy="249" cx="214" fill="#66c6dd"/><g stroke="#000"><ellipse ry="28.5" rx="28.4" cy="249" cx="214" fill="#00a0c6" stroke-width="3.3"/><ellipse ry="166" rx="165" cy="249" cx="214" fill="none" stroke-width="4.9"/></g><path stroke="#19aacc" stroke-width="4.9" d="m 282 249 h -20"/><circle r="167" cy="249" cx="214" opacity="0.8" color="#000" stroke-width="1.1" fill="none" stroke="#00f"/><g id="0"><path transform="matrix(0.9424 -0.3345 0.3721 0.9282 0 0)" d="m 100 412 h 15.2 v 23.3 h -15.2 z m -16.6 8.9 l 24 -34 l 22.8 32.9 l -23 -7.3 z m 56.7 4 c -9 6.3 -8.9 26 -3 24 -5.6 1.9 11.6 0.1 21.4 -2.3 -9.8 2.4 -24.3 17.9 -17.8 19 -6.5 -1.1 6.3 2.5 15.6 4.2 -9.3 -1.7 -23.9 5.5 -17.7 8.7 -6.2 -3.2 -0.4 14 7.1 21.3 -7.5 -7.3 -24.7 -14.4 -21 -8.7 -3.5 -5.7 -11.4 12.8 -9.6 22.5 -1.8 -9.7 -12.2 -23 -12.8 -16.4 0.6 -6.6 -11.6 2.6 -15 11.5 3.3 -8.9 2 -25.5 -1.6 -20.3 3.7 -5.2 -14.6 -4.7 -22 0.6 7.6 -5.3 18.5 -21.5 13.2 -19.8 5.3 -1.7 -14.2 -11.9 -23.7 -12.5 9.6 0.6 34.7 -7.6 30.8 -10 3.9 2.5 -3.4 -16.3 -9 -23 0 0 15.2 14.2 20.5 10.4 0 0 3.5 -0.8 6.8 -18.8 l 13.2 1.8 c 0 0 -8.6 24.4 -0.2 8.5 0 0 -3.3 21.4 25 -0.6 z" clip-path="url(#2)" color="#000" fill="#f00"/><path d="m 258 411 c 1.7 -4.3 2.6 -9.6 0.9 -8.3 2.2 -1.7 -9 -3.2 -13.8 -1.8 4.8 -1.4 15 -9.6 12.8 -10 2.3 0.4 -4.6 -7.2 -8.5 -9.4 3.9 2.2 13 3.7 11.2 1.8 1.9 1.9 -1.5 -9.2 -4.2 -13.7 2.7 4.5 11.7 10.9 11 8 0.6 2.9 3.4 -4.8 3.4 -9.5 0 4.7 3.5 12.4 4.1 9.6 -0.6 2.8 9.6 -3.9 12.6 -8.4 -3 4.5 -5.8 15.5 -3.5 13.5 -2.3 2 5.6 -1.9 9.7 -4.7 -4.1 2.8 -8.2 12.7 -4.9 12 -3.3 0.7 3.6 0 8.4 -0.6 -4.8 0.6 -10.4 6.6 -6.9 7.1 -1.4 -0.2 -1.3 0.8 -0.3 2.3 -18.6 8.6 -32 13 -32 12 z" fill="#ffff3e"/></g><use height="498" width="428" transform="matrix(0.7071 -0.7071 0.7071 0.7071 -114 224)" xlink:href="#0"/><use xlink:href="#0" transform="matrix(0 -1 1 0 -35.7 460)" width="428" height="498"/><use height="498" width="428" transform="matrix(-0.7071 -0.7071 0.7071 -0.7071 188 576)" xlink:href="#0"/><use xlink:href="#0" transform="matrix(-1 0 0 -1 427 500)" width="428" height="498"/><use height="498" width="428" transform="matrix(-0.7071 0.7071 -0.7071 -0.7071 543 276)" xlink:href="#0"/><use xlink:href="#0" transform="matrix(0 1 -1 0 467 35.6)" width="428" height="498"/><use height="498" width="428" transform="matrix(0.7071 0.7071 -0.7071 0.7071 240 -78)" xlink:href="#0"/><g fill="none"><use transform="matrix(1.646 0 0 1.652 -134 -308)" width="428" height="498" xlink:href="#3" stroke="#000" stroke-width="3"/><path opacity="0.4" stroke="#0a50ff" stroke-width="6.6" d="m 424 360 l -184 -101"/></g><g fill="#0a50ff"><path d="m -13 100 l -3.4 6.1 l 148 49 l 3 -5.5 l -148 -49.7" opacity="0.4"/><path d="m -28.8 377 l -3.3 -5.9 l 106 -69 l 3.3 6.2 l -106 68 z" opacity="0.4"/><path d="m 275 209 l -4 -4.7 l 140 -109 l 4.9 5.2 l -141 108 z" opacity="0.4"/></g><path d="m 263 247 h 19 v 4.9 h -19 z m 5.2 -11.5 l -5.1 14 l 5.1 14 l -21 -14 z" id="1" color="#000" fill="#19aacc"/><use height="498" width="428" transform="matrix(0.7071 -0.7071 0.7071 0.7071 -113 224)" xlink:href="#1"/><use xlink:href="#1" transform="matrix(0 -1 1 0 -35 462)" width="428" height="498"/><use height="498" width="428" transform="matrix(-0.7071 -0.7071 0.7071 -0.7071 188 576)" xlink:href="#1"/><use xlink:href="#1" transform="matrix(-1 0 0 -1 427 498)" width="428" height="498"/><use height="498" width="428" transform="matrix(-0.7071 0.7071 -0.7071 -0.7071 541 274)" xlink:href="#1"/><use xlink:href="#1" transform="matrix(0 1 -1 0 463 35.6)" width="428" height="498"/><use height="498" width="428" transform="matrix(0.7071 0.7071 -0.7071 0.7071 239 -77.9)" xlink:href="#1"/></svg>